<mxfile host="app.diagrams.net" modified="2023-07-21T11:13:14.304Z" agent="Mozilla/5.0 (Windows NT 10.0; Win64; x64) AppleWebKit/537.36 (KHTML, like Gecko) Chrome/114.0.0.0 Safari/537.36" version="21.6.5" etag="NVDY6LNEOE8J5bjorSJ2" type="github">
  <diagram name="Page-1" id="0oy7MrNfihME_VRceRTo">
    <mxGraphModel>
      <root>
        <mxCell id="0" />
        <mxCell id="1" parent="0" />
      </root>
    </mxGraphModel>
  </diagram>
</mxfile>
